<?xml version="1.0" encoding="utf-8"?>
<!-- Generator: Adobe Illustrator 17.0.0, SVG Export Plug-In . SVG Version: 6.00 Build 0)  -->
<!DOCTYPE svg PUBLIC "-//W3C//DTD SVG 1.1//EN" "http://www.w3.org/Graphics/SVG/1.1/DTD/svg11.dtd">
<svg version="1.1" id="Layer_1" xmlns="http://www.w3.org/2000/svg" xmlns:xlink="http://www.w3.org/1999/xlink" x="0px" y="0px"
	 width="696.044px" height="161.716px" viewBox="55.311 209.015 696.044 161.716"
	 enable-background="new 55.311 209.015 696.044 161.716" xml:space="preserve">
<g>
	<g>
		<g>
			<path d="M111.823,334.1c-10.798,0-21.05-1.68-30.754-5.029c-9.708-3.349-18.293-8.377-25.758-15.082l16.282-19.488
				c1.28-1.532,3.741-1.969,5.47-0.972c0,0,21.951,12.657,35.965,12.657c4.479,0,7.895-0.716,10.252-2.147
				c2.353-1.432,3.531-3.469,3.531-6.106l0,0c0-0.189-0.13-1.414-0.289-2.722c0,0,0,0-0.572-0.975
				c-0.576-0.975-1.637-1.921-3.188-2.839c-1.55-0.914-3.618-1.804-6.203-2.665c-2.583-0.861-5.943-1.751-10.078-2.668
				c-6.434-1.488-12.405-3.122-17.917-4.901c-5.514-1.775-10.311-4.068-14.388-6.878s-7.295-6.304-9.648-10.493
				c-2.355-4.182-3.531-9.373-3.531-15.564l0,0c0-0.189,0.16-1.969,0.356-3.955c0,0,0.706-7.165,2.832-11.868
				c2.124-4.699,5.225-8.771,9.304-12.208c4.075-3.441,8.985-6.106,14.73-7.998c5.743-1.892,12.233-2.839,19.469-2.839
				c10.337,0,19.554,1.361,27.65,4.075c8.097,2.718,15.422,6.733,21.968,12.049l-14.62,20.711c-1.151,1.631-3.484,2.11-5.184,1.065
				c0,0-8.078-4.964-13.878-6.974c-5.801-2.009-11.4-3.016-16.797-3.016c-4.022,0-7.038,0.748-9.045,2.236
				c-2.011,1.492-3.016,3.328-3.016,5.503l0,0c0,0.189,0.142,1.505,0.315,2.924c0,0,0,0,0.633,1.031
				c0.629,1.035,1.722,1.977,3.273,2.842c1.552,0.861,3.675,1.719,6.375,2.576c2.699,0.861,6.117,1.751,10.252,2.665
				c6.891,1.492,13.121,3.239,18.693,5.245c5.567,2.009,10.305,4.444,14.214,7.311c3.902,2.867,6.889,6.336,8.959,10.408
				c2.066,4.068,3.101,8.916,3.101,14.529l0,0c0,0.189-0.164,1.968-0.364,3.954c0,0-0.816,8.087-3.169,12.9
				c-2.353,4.816-5.659,8.916-9.905,12.3c-4.253,3.381-9.363,5.961-15.334,7.74C125.835,333.21,119.171,334.1,111.823,334.1z"/>
		</g>
		<g>
			<path d="M180.219,215.054c0-1.996,1.633-3.629,3.629-3.629h44.428c1.996,0,5.258,0.107,7.25,0.238c0,0,10.852,0.712,17.057,2.608
				c6.202,1.892,11.482,4.649,15.848,8.268c4.366,3.618,7.725,8.073,10.082,13.353c2.353,5.284,3.53,11.258,3.53,17.917l0,0
				c0,0.191-0.157,1.973-0.348,3.959c0,0-0.942,9.769-3.529,15.166c-2.583,5.401-6.173,9.937-10.766,13.612
				c-4.596,3.678-10.078,6.435-16.454,8.271c-6.375,1.839-13.296,2.757-20.763,2.757h-12.91c-1.996,0-3.629,1.633-3.629,3.629
				v27.198c0,1.996-1.633,3.629-3.629,3.629h-26.167c-1.996,0-3.629-1.633-3.629-3.629L180.219,215.054L180.219,215.054z
				 M225.866,271.386c1.996,0,5.248-0.215,7.226-0.477c0,0,7.055-0.936,10.443-3.768c3.388-2.828,5.082-6.666,5.082-11.517l0,0
				c0-0.191-0.297-1.953-0.66-3.916c0,0-1.034-5.585-4.421-8.3c-3.388-2.715-8.126-4.068-14.214-4.068h-12.049
				c-1.996,0-3.629,1.633-3.629,3.629v24.789c0,1.996,1.633,3.629,3.629,3.629h8.593V271.386z"/>
		</g>
		<g>
			<path d="M360.259,334.443c-9.302,0-17.917-1.637-25.845-4.912c-7.924-3.271-14.76-7.722-20.501-13.353
				c-5.744-5.624-10.252-12.233-13.526-19.813c-3.271-7.58-4.908-15.678-4.908-24.292l0,0c0-0.189,0.159-1.969,0.353-3.955
				c0,0,1.284-13.129,4.555-20.769c3.274-7.637,7.839-14.299,13.697-19.983c5.858-5.688,12.75-10.167,20.678-13.441
				c7.924-3.271,16.539-4.908,25.841-4.908c9.306,0,17.921,1.637,25.845,4.908c7.924,3.274,14.756,7.729,20.504,13.353
				c5.741,5.631,10.249,12.233,13.523,19.813c3.274,7.584,4.912,15.681,4.912,24.296l0,0c0,0.189-0.159,1.969-0.353,3.955
				c0,0-1.284,13.129-4.558,20.766c-3.274,7.64-7.839,14.303-13.697,19.987s-12.75,10.167-20.674,13.438
				C378.176,332.806,369.561,334.443,360.259,334.443z M360.518,304.293c4.607,0,8.81-0.861,12.612-2.587
				c3.802-1.722,7.027-4.047,9.674-6.978c2.651-2.927,4.724-6.343,6.219-10.249c1.495-3.905,2.247-8.041,2.247-12.407l0,0
				c0-0.189-0.144-1.97-0.32-3.958c0,0-0.432-4.883-1.927-8.792c-1.495-3.902-3.629-7.35-6.389-10.337
				c-2.768-2.984-6.049-5.369-9.848-7.151c-3.802-1.779-8.005-2.668-12.612-2.668c-4.61,0-8.785,0.861-12.527,2.583
				c-3.746,1.722-6.971,4.051-9.678,6.978c-2.707,2.931-4.781,6.35-6.219,10.252c-1.439,3.905-2.158,8.041-2.158,12.407l0,0
				c0,0.189,0.143,1.97,0.318,3.959c0,0,0.43,4.887,1.929,8.788c1.495,3.909,3.597,7.353,6.308,10.337
				c2.704,2.991,5.957,5.372,9.759,7.151C351.708,303.404,355.907,304.293,360.518,304.293z"/>
		</g>
		<g>
			<path d="M469.225,244.343c0-1.996-1.633-3.629-3.629-3.629h-28.924c-1.996,0-3.629-1.633-3.629-3.629v-22.032
				c0-1.996,1.633-3.629,3.629-3.629h98.527c1.996,0,3.629,1.633,3.629,3.629v22.032c0,1.996-1.633,3.629-3.629,3.629h-28.921
				c-1.996,0-3.629,1.633-3.629,3.629v84.058c0,1.996-1.633,3.629-3.629,3.629h-26.167c-1.996,0-3.629-1.633-3.629-3.629v-84.058
				H469.225z"/>
		</g>
		<g>
			<path d="M561.054,215.054c0-1.996,1.633-3.629,3.629-3.629h26.337c1.996,0,3.629,1.633,3.629,3.629v113.347
				c0,1.996-1.633,3.629-3.629,3.629h-26.337c-1.996,0-3.629-1.633-3.629-3.629V215.054z"/>
		</g>
	</g>
	<g>
		<path fill="#F39C12" d="M686.228,370.731c-9.304,0-51.406-55.448-59.872-74.364c-3.373-7.536-4.91-15.679-4.91-24.292v-0.346
			c0-8.615,1.637-16.739,4.91-24.379c3.274-7.637,7.841-14.301,13.698-19.985c5.858-5.686,12.749-10.165,20.674-13.44
			c7.926-3.273,16.54-4.91,25.845-4.91c9.302,0,17.917,1.637,25.843,4.91c7.926,3.274,14.758,7.727,20.502,13.353
			c5.743,5.629,10.252,12.233,13.525,19.813c3.274,7.582,4.912,15.679,4.912,24.294v0.344c0,8.615-1.528,16.79-4.912,24.379
			C736.882,317.55,695.532,370.731,686.228,370.731z M686.487,304.292c4.607,0,8.812-0.861,12.612-2.585
			c3.801-1.722,7.026-4.049,9.674-6.978s4.722-6.345,6.219-10.25c1.497-3.903,2.248-8.039,2.248-12.405v-0.346
			c0-4.364-0.751-8.498-2.248-12.405c-1.497-3.903-3.629-7.35-6.391-10.337c-2.764-2.986-6.046-5.369-9.846-7.151
			c-3.802-1.779-8.007-2.67-12.614-2.67c-4.609,0-8.783,0.861-12.525,2.585c-3.744,1.722-6.971,4.049-9.678,6.978
			s-4.781,6.349-6.219,10.252c-1.439,3.905-2.158,8.041-2.158,12.405v0.344c0,4.366,0.748,8.501,2.245,12.405
			c1.497,3.907,3.599,7.352,6.308,10.337c2.706,2.989,5.961,5.371,9.761,7.151S681.878,304.292,686.487,304.292z"/>
	</g>
</g>
<g display="none">
	<g display="inline">
		<g>
			<path fill="#FFFFFF" d="M111.823,334.1c-10.798,0-21.05-1.68-30.754-5.029c-9.708-3.349-18.293-8.377-25.758-15.082
				l16.282-19.488c1.28-1.532,3.741-1.969,5.47-0.972c0,0,21.951,12.657,35.965,12.657c4.479,0,7.895-0.716,10.252-2.147
				c2.353-1.432,3.531-3.469,3.531-6.106l0,0c0-0.189-0.13-1.414-0.289-2.722c0,0,0,0-0.572-0.975
				c-0.576-0.975-1.637-1.921-3.188-2.839c-1.55-0.914-3.618-1.804-6.203-2.665c-2.583-0.861-5.943-1.751-10.078-2.668
				c-6.434-1.488-12.405-3.122-17.917-4.901c-5.514-1.775-10.311-4.068-14.388-6.878s-7.295-6.304-9.648-10.493
				c-2.355-4.182-3.531-9.373-3.531-15.564l0,0c0-0.189,0.16-1.969,0.356-3.955c0,0,0.706-7.165,2.832-11.868
				c2.124-4.699,5.225-8.771,9.304-12.208c4.075-3.441,8.985-6.106,14.73-7.998c5.743-1.892,12.233-2.839,19.469-2.839
				c10.337,0,19.554,1.361,27.65,4.075c8.097,2.718,15.422,6.733,21.968,12.049l-14.62,20.711c-1.151,1.631-3.484,2.11-5.184,1.065
				c0,0-8.078-4.964-13.878-6.974c-5.801-2.009-11.4-3.016-16.797-3.016c-4.022,0-7.038,0.748-9.045,2.236
				c-2.011,1.492-3.016,3.328-3.016,5.503l0,0c0,0.189,0.142,1.505,0.315,2.924c0,0,0,0,0.633,1.031
				c0.629,1.035,1.722,1.977,3.273,2.842c1.552,0.861,3.675,1.719,6.375,2.576c2.699,0.861,6.117,1.751,10.252,2.665
				c6.891,1.492,13.121,3.239,18.693,5.245c5.567,2.009,10.305,4.444,14.214,7.311c3.902,2.867,6.889,6.336,8.959,10.408
				c2.066,4.068,3.101,8.916,3.101,14.529l0,0c0,0.189-0.164,1.968-0.364,3.954c0,0-0.816,8.087-3.169,12.9
				c-2.353,4.816-5.659,8.916-9.905,12.3c-4.253,3.381-9.363,5.961-15.334,7.74C125.835,333.21,119.171,334.1,111.823,334.1z"/>
		</g>
		<g>
			<path fill="#FFFFFF" d="M180.219,215.054c0-1.996,1.633-3.629,3.629-3.629h44.428c1.996,0,5.258,0.107,7.25,0.238
				c0,0,10.852,0.712,17.057,2.608c6.202,1.892,11.482,4.649,15.848,8.268c4.366,3.618,7.725,8.073,10.082,13.353
				c2.353,5.284,3.53,11.258,3.53,17.917l0,0c0,0.191-0.157,1.973-0.348,3.959c0,0-0.942,9.769-3.529,15.166
				c-2.583,5.401-6.173,9.937-10.766,13.612c-4.596,3.678-10.078,6.435-16.454,8.271c-6.375,1.839-13.296,2.757-20.763,2.757h-12.91
				c-1.996,0-3.629,1.633-3.629,3.629v27.198c0,1.996-1.633,3.629-3.629,3.629h-26.167c-1.996,0-3.629-1.633-3.629-3.629
				L180.219,215.054L180.219,215.054z M225.866,271.386c1.996,0,5.248-0.215,7.226-0.477c0,0,7.055-0.936,10.443-3.768
				c3.388-2.828,5.082-6.666,5.082-11.517l0,0c0-0.191-0.297-1.953-0.66-3.916c0,0-1.034-5.585-4.421-8.3
				c-3.388-2.715-8.126-4.068-14.214-4.068h-12.049c-1.996,0-3.629,1.633-3.629,3.629v24.789c0,1.996,1.633,3.629,3.629,3.629h8.593
				V271.386z"/>
		</g>
		<g>
			<path fill="#FFFFFF" d="M360.259,334.443c-9.302,0-17.917-1.637-25.845-4.912c-7.924-3.271-14.76-7.722-20.501-13.353
				c-5.744-5.624-10.252-12.233-13.526-19.813c-3.271-7.58-4.908-15.678-4.908-24.292l0,0c0-0.189,0.159-1.969,0.353-3.955
				c0,0,1.284-13.129,4.555-20.769c3.274-7.637,7.839-14.299,13.697-19.983c5.858-5.688,12.75-10.167,20.678-13.441
				c7.924-3.271,16.539-4.908,25.841-4.908c9.306,0,17.921,1.637,25.845,4.908c7.924,3.274,14.756,7.729,20.504,13.353
				c5.741,5.631,10.249,12.233,13.523,19.813c3.274,7.584,4.912,15.681,4.912,24.296l0,0c0,0.189-0.159,1.969-0.353,3.955
				c0,0-1.284,13.129-4.558,20.766c-3.274,7.64-7.839,14.303-13.697,19.987s-12.75,10.167-20.674,13.438
				C378.176,332.806,369.561,334.443,360.259,334.443z M360.518,304.293c4.607,0,8.81-0.861,12.612-2.587
				c3.802-1.722,7.027-4.047,9.674-6.978c2.651-2.927,4.724-6.343,6.219-10.249c1.495-3.905,2.247-8.041,2.247-12.407l0,0
				c0-0.189-0.144-1.97-0.32-3.958c0,0-0.432-4.883-1.927-8.792c-1.495-3.902-3.629-7.35-6.389-10.337
				c-2.768-2.984-6.049-5.369-9.848-7.151c-3.802-1.779-8.005-2.668-12.612-2.668c-4.61,0-8.785,0.861-12.527,2.583
				c-3.746,1.722-6.971,4.051-9.678,6.978c-2.707,2.931-4.781,6.35-6.219,10.252c-1.439,3.905-2.158,8.041-2.158,12.407l0,0
				c0,0.189,0.143,1.97,0.318,3.959c0,0,0.43,4.887,1.929,8.788c1.495,3.909,3.597,7.353,6.308,10.337
				c2.704,2.991,5.957,5.372,9.759,7.151C351.708,303.404,355.907,304.293,360.518,304.293z"/>
		</g>
		<g>
			<path fill="#FFFFFF" d="M469.225,244.343c0-1.996-1.633-3.629-3.629-3.629h-28.924c-1.996,0-3.629-1.633-3.629-3.629v-22.032
				c0-1.996,1.633-3.629,3.629-3.629h98.527c1.996,0,3.629,1.633,3.629,3.629v22.032c0,1.996-1.633,3.629-3.629,3.629h-28.921
				c-1.996,0-3.629,1.633-3.629,3.629v84.058c0,1.996-1.633,3.629-3.629,3.629h-26.167c-1.996,0-3.629-1.633-3.629-3.629v-84.058
				H469.225z"/>
		</g>
		<g>
			<path fill="#FFFFFF" d="M561.054,215.054c0-1.996,1.633-3.629,3.629-3.629h26.337c1.996,0,3.629,1.633,3.629,3.629v113.347
				c0,1.996-1.633,3.629-3.629,3.629h-26.337c-1.996,0-3.629-1.633-3.629-3.629V215.054z"/>
		</g>
	</g>
	<g display="inline">
		<path fill="#F39C12" d="M686.228,370.731c-9.304,0-51.406-55.448-59.872-74.364c-3.373-7.536-4.91-15.679-4.91-24.292v-0.346
			c0-8.615,1.637-16.739,4.91-24.379c3.274-7.637,7.841-14.301,13.698-19.985c5.858-5.686,12.749-10.165,20.674-13.44
			c7.926-3.273,16.54-4.91,25.845-4.91c9.302,0,17.917,1.637,25.843,4.91c7.926,3.274,14.758,7.727,20.502,13.353
			c5.743,5.629,10.252,12.233,13.525,19.813c3.274,7.582,4.912,15.679,4.912,24.294v0.344c0,8.615-1.528,16.79-4.912,24.379
			C736.882,317.55,695.532,370.731,686.228,370.731z M686.487,304.292c4.607,0,8.812-0.861,12.612-2.585
			c3.801-1.722,7.026-4.049,9.674-6.978s4.722-6.345,6.219-10.25c1.497-3.903,2.248-8.039,2.248-12.405v-0.346
			c0-4.364-0.751-8.498-2.248-12.405c-1.497-3.903-3.629-7.35-6.391-10.337c-2.764-2.986-6.046-5.369-9.846-7.151
			c-3.802-1.779-8.007-2.67-12.614-2.67c-4.609,0-8.783,0.861-12.525,2.585c-3.744,1.722-6.971,4.049-9.678,6.978
			s-4.781,6.349-6.219,10.252c-1.439,3.905-2.158,8.041-2.158,12.405v0.344c0,4.366,0.748,8.501,2.245,12.405
			c1.497,3.907,3.599,7.352,6.308,10.337c2.706,2.989,5.961,5.371,9.761,7.151S681.878,304.292,686.487,304.292z"/>
	</g>
</g>
</svg>
