<?xml version="1.0" encoding="utf-8"?>
<!-- Generator: Adobe Illustrator 17.0.0, SVG Export Plug-In . SVG Version: 6.00 Build 0)  -->
<!DOCTYPE svg PUBLIC "-//W3C//DTD SVG 1.1//EN" "http://www.w3.org/Graphics/SVG/1.1/DTD/svg11.dtd">
<svg version="1.1" id="Layer_1" xmlns="http://www.w3.org/2000/svg" xmlns:xlink="http://www.w3.org/1999/xlink" x="0px" y="0px"
	 width="696.339px" height="62.848px" viewBox="0 0 696.339 62.848" enable-background="new 0 0 696.339 62.848"
	 xml:space="preserve">
<g>
	<g>
		<g>
			<path fill="#1545BC" d="M62.222,60.879l2.292-33.363h-2.179l-0.358,1c-0.675,1.887-1.374,3.837-2.249,5.618L46.87,60.879H35.436
				l-3.711-24.917c-0.229-2.515-0.405-4.848-0.166-7.351l0.105-1.095h-2.628l-0.266,1.182c-0.513,2.284-1.044,4.645-1.631,6.919
				l-6.508,25.262H1.37L20.224,1.97h21.15l3.338,31.989h2.203L47.3,32.72c0.772-2.496,1.57-5.077,2.608-7.438L60.292,1.97h20.895
				l0.365,58.909H62.222z"/>
		</g>
		<g>
			<path fill="#0F357F" d="M80.193,2.97l0.353,56.909H63.293l2.145-31.226l0.147-2.137h-2.142h-0.404h-1.408l-0.475,1.325
				l-0.122,0.34c-0.665,1.859-1.354,3.782-2.211,5.527l-12.582,26.17h-9.943L32.723,35.87c-0.229-2.498-0.397-4.764-0.167-7.164
				l0.21-2.191h-2.201h-0.727h-1.6l-0.351,1.561l-0.089,0.398c-0.512,2.277-1.041,4.632-1.625,6.893l-6.314,24.511H2.74L20.954,2.97
				h19.519l3.151,30.197l0.187,1.792h1.802h0.565h1.474l0.436-1.408l0.163-0.526c0.765-2.472,1.555-5.028,2.568-7.331L60.941,2.97
				H80.193 M82.181,0.97H59.643L48.993,24.88c-1.137,2.585-1.988,5.413-2.814,8.078h-0.565L42.275,0.97H19.494L0,61.879h21.407
				l6.701-26.012c0.626-2.423,1.184-4.928,1.729-7.351h0.727c-0.247,2.585-0.066,5.008,0.172,7.593l3.838,25.77h12.925
				l13.127-27.304c0.953-1.939,1.69-4.04,2.413-6.059h0.404l-2.291,33.363h21.408L82.181,0.97L82.181,0.97z"/>
		</g>
	</g>
	<g>
		<g>
			<path fill="#1545BC" d="M127.718,60.879l-0.817-7.594h-18.301l-2.979,7.594H84.501L114.294,1.97h23.042l11.693,58.909H127.718z
				 M114.083,40.826h11.415L124.525,29c-0.222-2.418-0.216-4.932-0.211-7.363l0.003-1.392h-2.502L114.083,40.826z"/>
		</g>
		<g>
			<path fill="#0F357F" d="M136.514,2.97l11.296,56.909h-19.194l-0.625-5.807l-0.192-1.786h-1.796H109.28h-1.364l-0.498,1.27
				l-2.481,6.324h-18.81L114.909,2.97H136.514 M112.639,41.826h2.888h8.886h2.171l-0.178-2.164l-0.886-10.763
				c-0.217-2.359-0.211-4.845-0.206-7.25l0.001-0.4l0.004-2.004h-2.004h-0.808h-1.385l-0.487,1.297l-6.979,18.581L112.639,41.826
				 M138.156,0.97h-24.477L82.874,61.879h23.427l2.979-7.593h16.722l0.817,7.593h23.427L138.156,0.97L138.156,0.97z M123.314,21.245
				c-0.005,2.585-0.023,5.251,0.214,7.836l0.885,10.744h-8.886l6.979-18.581H123.314L123.314,21.245z"/>
		</g>
	</g>
	<g>
		<g>
			<polygon fill="#1545BC" points="157.565,60.879 164.171,19.14 151.883,19.705 154.689,1.97 199.195,1.97 196.387,19.72 
				184.277,19.155 177.675,60.879 			"/>
		</g>
		<g>
			<path fill="#0F357F" d="M198.024,2.97l-2.486,15.71l-10.32-0.482l-1.789-0.084l-0.28,1.769l-6.329,39.996h-18.085l6.231-39.371
				l0.384-2.423l-2.451,0.113l-9.836,0.452l2.481-15.68H198.024 M200.366,0.97h-46.53l-3.132,19.791l12.287-0.565l-6.597,41.683
				h22.135l6.596-41.683l12.109,0.565L200.366,0.97L200.366,0.97z"/>
		</g>
	</g>
	<g>
		<g>
			<polygon fill="#1545BC" points="208.937,60.879 215.543,19.14 203.256,19.705 206.062,1.97 250.567,1.97 247.759,19.72 
				235.65,19.155 229.047,60.879 			"/>
		</g>
		<g>
			<path fill="#0F357F" d="M249.397,2.97l-2.486,15.71l-10.32-0.482l-1.789-0.084l-0.28,1.769l-6.329,39.996h-18.085l6.231-39.371
				l0.384-2.423l-2.451,0.113l-9.836,0.452l2.481-15.68H249.397 M251.738,0.97h-46.53l-3.132,19.791l12.287-0.565l-6.597,41.683
				h22.135l6.596-41.683l12.109,0.565L251.738,0.97L251.738,0.97z"/>
		</g>
	</g>
	<g>
		<g>
			<path fill="#1545BC" d="M280.376,60.879l-6.6-19.548H271.8l-3.093,19.548h-19.625l9.323-58.909h25.885
				c5.829,0,13.703,1.083,18.107,6.239c2.855,3.342,3.838,7.975,2.921,13.769c-1.336,8.442-4.772,12.236-13.614,15.037l-0.59,0.187
				l-0.257,1.632l0.724,0.647c0.911,0.807,1.854,1.641,2.603,3.071l9.367,18.328H280.376z M273.759,28.95h2.706
				c2.431,0,8.125,0,9.064-5.933c0.313-1.98,0.018-3.468-0.905-4.548c-1.396-1.634-3.882-1.859-6.361-1.859h-2.551L273.759,28.95z"
				/>
		</g>
		<g>
			<path fill="#0F357F" d="M284.289,2.97c5.619,0,13.19,1.022,17.347,5.888c2.656,3.11,3.563,7.471,2.693,12.963
				c-1.264,7.986-4.526,11.579-12.928,14.24l-1.179,0.373l-0.193,1.221l-0.077,0.484l-0.17,1.074l0.809,0.726l0.324,0.288
				c0.844,0.747,1.717,1.519,2.371,2.769l8.628,16.881h-20.823l-6.14-18.188l-0.459-1.36h-1.436h-0.404h-1.708l-0.267,1.687
				l-2.826,17.861h-17.6l9.007-56.909H284.289 M272.588,29.95h2.341h1.535c2.456,0,8.979,0,10.051-6.776
				c0.357-2.255-0.024-4.057-1.132-5.354c-1.659-1.942-4.403-2.21-7.121-2.21h-1.697h-1.708l-0.267,1.687l-1.636,10.34
				L272.588,29.95 M284.289,0.97h-26.739l-9.64,60.909h21.65l3.093-19.548h0.404l6.6,19.548h25.527l-10.116-19.792
				c-0.93-1.777-2.15-2.747-3.14-3.635l0.077-0.484c8.675-2.747,12.842-6.625,14.3-15.834C308.734,6.785,298.022,0.97,284.289,0.97
				L284.289,0.97z M274.93,27.95l1.636-10.34h1.697c3.797,0,7.02,0.565,6.278,5.251c-0.716,4.524-4.441,5.089-8.076,5.089H274.93
				L274.93,27.95z"/>
		</g>
	</g>
	<g>
		<g>
			<polygon fill="#1545BC" points="309.905,60.879 319.228,1.97 358.159,1.97 355.841,16.611 337.182,16.611 335.945,24.427 
				352.989,24.427 350.799,38.261 333.756,38.261 332.493,46.238 351.799,46.238 349.482,60.879 			"/>
		</g>
		<g>
			<path fill="#0F357F" d="M356.988,2.97l-2.001,12.641h-16.951h-1.708l-0.267,1.687l-0.921,5.816l-0.366,2.313h2.341h14.703
				l-1.873,11.834H334.61h-1.708l-0.267,1.687l-0.946,5.977l-0.366,2.313h2.342h16.965l-2,12.641h-37.553l9.007-56.909H356.988
				 M359.33,0.97h-40.956l-9.64,60.909h41.603l2.633-16.641h-19.306l0.946-5.977h17.043l2.506-15.834h-17.044l0.921-5.816h18.66
				L359.33,0.97L359.33,0.97z"/>
		</g>
	</g>
	<g>
		<g>
			<path fill="#1545BC" d="M377.968,61.849c-7.141,0-15.15-1.896-21.178-4.981l8.408-15.217l0.058,0.051
				c4.377,3.869,8.95,5.829,13.597,5.829c3.136,0,6.732-1.401,7.218-4.479c0.546-3.44-2.806-4.076-4.606-4.417l-0.569-0.111
				l-4.332-0.812c-4.367-0.797-14.321-3.855-12.554-15.017C366.238,8.604,380.611,1,393.003,1c6.551,0,12.17,1.528,17.145,4.666
				l-7.459,13.771c-3.918-2.77-7.783-4.119-11.782-4.119c-2.593,0-5.79,1.067-6.266,4.075c-0.466,2.94,2.549,3.623,4.169,3.989
				c0.191,0.043,5.39,1.261,5.39,1.261c9.877,2.296,14.009,7.634,12.635,16.32C404.563,55.313,390.279,61.849,377.968,61.849z"/>
		</g>
		<g>
			<path fill="#0F357F" d="M393.003,2c6.006,0,11.198,1.319,15.812,4.026l-6.479,11.962c-3.778-2.466-7.535-3.67-11.43-3.67
				c-2.987,0-6.678,1.288-7.253,4.917c-0.614,3.866,3.418,4.778,4.935,5.121c0.184,0.042,0.362,0.082,0.553,0.129l4.833,1.131
				c9.394,2.183,13.166,7.009,11.872,15.19c-1.23,7.779-6.101,12.427-9.97,14.956c-5.018,3.28-11.377,5.086-17.908,5.086
				c-6.632,0-14.025-1.667-19.796-4.414l7.309-13.226c4.295,3.533,8.789,5.323,13.372,5.323c3.547,0,7.628-1.666,8.206-5.322
				c0.698-4.4-3.581-5.211-5.408-5.557c-0.19-0.036-0.376-0.071-0.589-0.115l-4.324-0.811c-11.787-2.152-12.415-9.617-11.741-13.876
				C367.139,9.308,381.025,2,393.003,2 M393.003,0c-13.248,0-27.694,8.078-29.982,22.538c-1.51,9.532,4.956,14.622,13.357,16.156
				l4.314,0.809c1.957,0.403,4.827,0.646,4.391,3.393c-0.434,2.747-4.049,3.635-6.23,3.635c-5.089,0-9.458-2.505-12.931-5.574
				l-0.992-0.888l-9.508,17.206c6.316,3.474,14.87,5.574,22.545,5.574c13.168,0,27.554-7.189,29.854-21.729
				c1.636-10.341-4.357-15.35-13.394-17.45l-4.83-1.131c-1.632-0.404-4.328-0.727-3.969-2.989c0.397-2.504,3.338-3.231,5.278-3.231
				c4.766,0,8.727,2.019,12.115,4.604l8.444-15.591C406.063,1.697,399.95,0,393.003,0L393.003,0z"/>
		</g>
	</g>
	<g>
		<g>
			<path fill="#1545BC" d="M429.905,61.849c-7.139,0-15.148-1.896-21.178-4.981l8.41-15.216l0.055,0.049
				c4.378,3.87,8.952,5.83,13.6,5.83c3.135,0,6.73-1.401,7.216-4.479c0.547-3.44-2.806-4.076-4.606-4.417l-0.57-0.111l-4.331-0.812
				c-4.366-0.797-14.32-3.855-12.554-15.017C418.176,8.604,432.549,1,444.94,1c6.551,0,12.17,1.528,17.145,4.666l-7.459,13.771
				c-3.918-2.77-7.783-4.119-11.782-4.119c-2.592,0-5.789,1.067-6.266,4.074c-0.465,2.941,2.55,3.623,4.17,3.989
				c0.19,0.043,5.39,1.261,5.39,1.261c9.878,2.295,14.01,7.634,12.636,16.32C456.501,55.313,442.217,61.849,429.905,61.849z"/>
		</g>
		<g>
			<path fill="#0F357F" d="M444.94,2c6.006,0,11.198,1.319,15.812,4.026l-6.479,11.962c-3.778-2.466-7.535-3.67-11.43-3.67
				c-2.987,0-6.678,1.288-7.253,4.919c-0.611,3.865,3.419,4.777,4.936,5.12c0.184,0.042,0.362,0.082,0.553,0.129l4.833,1.131
				c9.395,2.183,13.168,7.009,11.873,15.189c-1.231,7.779-6.102,12.427-9.972,14.956c-5.018,3.28-11.378,5.086-17.908,5.086
				c-6.631,0-14.023-1.667-19.795-4.414l7.309-13.225c4.295,3.532,8.789,5.322,13.373,5.322c3.546,0,7.626-1.666,8.204-5.322
				c0.698-4.4-3.581-5.211-5.409-5.557c-0.19-0.036-0.376-0.071-0.589-0.115l-4.324-0.811c-11.785-2.152-12.415-9.617-11.741-13.876
				C419.077,9.308,432.963,2,444.94,2 M444.94,0c-13.247,0-27.694,8.078-29.982,22.538c-1.508,9.532,4.956,14.622,13.357,16.156
				l4.314,0.809c1.957,0.403,4.826,0.646,4.391,3.393c-0.434,2.747-4.049,3.635-6.229,3.635c-5.09,0-9.459-2.505-12.932-5.574
				l-0.99-0.888l-9.509,17.206c6.318,3.474,14.87,5.574,22.544,5.574c13.168,0,27.554-7.189,29.855-21.729
				c1.636-10.341-4.357-15.35-13.396-17.45l-4.83-1.131c-1.632-0.404-4.327-0.727-3.969-2.989c0.397-2.504,3.338-3.231,5.278-3.231
				c4.766,0,8.727,2.019,12.115,4.604l8.444-15.591C458.001,1.697,451.888,0,444.94,0L444.94,0z"/>
		</g>
	</g>
</g>
<g>
	<g>
		<g>
			<path fill="#CCCCCC" d="M480.86,60.879V1.97h27.029c14.853,0,23.72,7.991,23.72,21.376c0,11.841-7.324,19.196-19.114,19.196
				h-12.311v18.336H480.86z M500.184,29.193h3.182c2.483,0,9.079,0,9.079-6.574c0-6.008-6.187-6.008-9.16-6.008h-3.101V29.193z"/>
			<path fill="#939393" d="M501.184,61.879H479.86V0.97h28.029c15.479,0,24.72,8.365,24.72,22.376
				c0,12.458-7.707,20.196-20.114,20.196h-11.311V61.879z M481.86,59.879h17.324V41.543h13.311c11.173,0,18.114-6.972,18.114-18.196
				c0-12.759-8.493-20.376-22.72-20.376H481.86V59.879z M503.366,30.193h-4.182V15.611h4.101c2.778,0,10.16,0,10.16,7.008
				C513.445,30.193,505.859,30.193,503.366,30.193z M501.184,28.193h2.182c3.995,0,8.079-0.662,8.079-5.574
				c0-4.621-4.212-5.008-8.16-5.008h-2.101V28.193z"/>
		</g>
	</g>
	<g>
		<g>
			<polygon fill="#CCCCCC" points="539.665,60.879 539.665,1.97 559.799,1.97 559.799,43.331 578.379,43.331 578.379,60.879 			"/>
			<path fill="#939393" d="M579.379,61.879h-40.714V0.97h22.134v41.36h18.58V61.879z M540.665,59.879h36.714V44.331h-18.58V2.97
				h-18.134V59.879z"/>
		</g>
	</g>
	<g>
		<g>
			<path fill="#CCCCCC" d="M613.302,61.849c-22.475,0-27.192-13.514-27.192-24.851V1.97h20.134v32.928c0,4.44,0,9.966,7.059,9.966
				s7.059-5.526,7.059-9.966V1.97h20.134v35.028C640.494,48.335,635.776,61.849,613.302,61.849z"/>
			<path fill="#939393" d="M613.302,62.849c-23.302,0-28.192-14.058-28.192-25.851V0.97h22.134v33.928
				c0,5.416,0.422,8.966,6.059,8.966s6.059-3.55,6.059-8.966V0.97h22.134v36.028C641.494,48.791,636.603,62.849,613.302,62.849z
				 M587.109,2.97v34.028c0,10.88,4.544,23.851,26.192,23.851c11.949,0,26.192-4.138,26.192-23.851V2.97H621.36v31.928
				c0,4.367,0,10.966-8.059,10.966s-8.059-6.599-8.059-10.966V2.97H587.109z"/>
		</g>
	</g>
	<g>
		<g>
			<path fill="#CCCCCC" d="M669.924,61.849c-7.204,0-15.603-1.93-22.158-5.065l5.955-15.1l0.075,0.059
				c4.954,3.842,9.807,5.788,14.431,5.788c3.205,0,6.655-1.45,6.655-4.635c0-3.315-3.22-3.908-5.144-4.262l-0.589-0.111
				l-4.459-0.812c-4.541-0.805-15.093-3.895-15.093-15.171c0-13.99,13.095-21.539,25.415-21.539c6.617,0,12.539,1.559,18.072,4.761
				l-5.231,13.643c-4.324-2.748-8.376-4.086-12.355-4.086c-2.87,0-5.767,1.308-5.767,4.231c0,2.821,2.906,3.456,4.643,3.835
				c0.198,0.043,5.589,1.261,5.589,1.261c10.347,2.319,15.376,7.708,15.376,16.474C695.339,55.361,682.164,61.849,669.924,61.849z"
				/>
			<path fill="#939393" d="M669.924,62.849c-7.386,0-15.83-1.931-22.59-5.163l-0.841-0.402l6.79-17.215l1.056,0.83
				c4.843,3.756,9.491,5.633,13.888,5.633c2.724,0,5.655-1.137,5.655-3.635c0-2.296-1.959-2.843-4.324-3.279l-5.047-0.923
				c-4.781-0.848-15.913-4.121-15.913-16.155c0-14.639,13.609-22.539,26.415-22.539c6.806,0,12.881,1.601,18.573,4.895l0.738,0.427
				l-5.975,15.581l-1.032-0.656c-4.162-2.645-8.028-3.93-11.819-3.93c-1.771,0-4.767,0.681-4.767,3.231
				c0,1.861,1.824,2.414,3.855,2.858c0.2,0.044,5.597,1.263,5.597,1.263c10.87,2.437,16.155,8.144,16.155,17.449
				C696.339,56.049,682.646,62.849,669.924,62.849z M649.042,56.274c6.281,2.833,14.189,4.575,20.882,4.575
				c11.759,0,24.415-6.174,24.415-19.73c0-8.342-4.638-13.266-14.595-15.498c-0.002,0-5.387-1.217-5.584-1.26
				c-1.762-0.385-5.429-1.186-5.429-4.812c0-3.613,3.398-5.231,6.767-5.231c3.858,0,7.746,1.181,11.853,3.605l4.492-11.714
				c-5.166-2.831-10.681-4.208-16.83-4.208c-11.836,0-24.415,7.198-24.415,20.539c0,10.521,9.978,13.426,14.268,14.186l5.059,0.926
				c1.931,0.355,5.958,1.096,5.958,5.245c0,3.872-3.968,5.635-7.655,5.635c-4.54,0-9.265-1.768-14.058-5.257L649.042,56.274z"/>
		</g>
	</g>
</g>
</svg>
